<svg width="15" height="15" viewBox="0 0 15 15" fill="none" xmlns="http://www.w3.org/2000/svg">
<g clip-path="url(#clip0)">
<path d="M0.744232 7.49998C0.744232 11.2209 3.76749 14.2558 7.50005 14.2558C11.2326 14.2558 14.2559 11.2209 14.2559 7.49998C14.2559 3.77905 11.221 0.744171 7.50005 0.744171C3.77912 0.744171 0.744232 3.77905 0.744232 7.49998ZM13.3024 7.49998C13.3024 10.6977 10.6977 13.3023 7.50005 13.3023C4.30237 13.3023 1.69772 10.6977 1.69772 7.49998C1.69772 4.30231 4.30237 1.69766 7.50005 1.69766C10.6977 1.69766 13.3024 4.30231 13.3024 7.49998Z" fill="black"/>
<path d="M4.12805 5.94184C4.03503 6.03487 3.98852 6.15114 3.98852 6.27905C3.98852 6.39533 4.03503 6.52324 4.12805 6.61626L7.19782 9.68603C7.29084 9.77905 7.40712 9.82557 7.53503 9.82557C7.66294 9.82557 7.77922 9.77905 7.87224 9.68603L10.942 6.61626C11.1281 6.43021 11.1281 6.12789 10.942 5.94184C10.756 5.7558 10.4536 5.7558 10.2676 5.94184L7.53503 8.6744L4.80247 5.94184C4.61643 5.7558 4.3141 5.7558 4.12805 5.94184Z" fill="black"/>
</g>
<defs>
<clipPath id="clip0">
<rect width="15" height="15" fill="white" transform="translate(15) rotate(90)"/>
</clipPath>
</defs>
</svg>
