<svg width="18" height="17" viewBox="0 0 18 17" fill="none" xmlns="http://www.w3.org/2000/svg">
<path fill-rule="evenodd" clip-rule="evenodd" d="M8.16727 1.28204C7.89113 1.28204 7.66727 1.05819 7.66727 0.782043C7.66727 0.505902 7.89113 0.282043 8.16727 0.282044L16.444 0.282043C16.6087 0.282044 16.7547 0.36165 16.8459 0.484479C16.9687 0.575581 17.0483 0.72166 17.0483 0.886329L17.0483 9.16305C17.0483 9.4392 16.8244 9.66305 16.5483 9.66305C16.2721 9.66305 16.0483 9.4392 16.0483 9.16305V1.80063L1.15692 16.692C0.961656 16.8873 0.645074 16.8873 0.449812 16.692C0.254549 16.4967 0.254549 16.1802 0.449812 15.9849L15.1527 1.28204L8.16727 1.28204Z" fill="white"/>
</svg>
