<svg width="19" height="20" viewBox="0 0 19 20" fill="none" xmlns="http://www.w3.org/2000/svg">
<path d="M5.66667 15.6297C4.62778 15.6297 3.77778 16.4797 3.77778 17.5186C3.77778 18.5574 4.62778 19.4074 5.66667 19.4074C6.70556 19.4074 7.55556 18.5574 7.55556 17.5186C7.55556 16.4797 6.70556 15.6297 5.66667 15.6297ZM0 0.518555V2.40744H1.88889L5.28889 9.58522L3.96667 11.8519C3.87222 12.1352 3.77778 12.513 3.77778 12.7963C3.77778 13.8352 4.62778 14.6852 5.66667 14.6852H17V12.7963H6.04444C5.95 12.7963 5.85556 12.7019 5.85556 12.6074V12.513L6.70556 10.9074H13.6944C14.45 10.9074 15.0167 10.5296 15.3 9.96296L18.7 3.82411C18.8889 3.63522 18.8889 3.54078 18.8889 3.35189C18.8889 2.78522 18.5111 2.40744 17.9444 2.40744H3.96667L3.11667 0.518555H0ZM15.1111 15.6297C14.0722 15.6297 13.2222 16.4797 13.2222 17.5186C13.2222 18.5574 14.0722 19.4074 15.1111 19.4074C16.15 19.4074 17 18.5574 17 17.5186C17 16.4797 16.15 15.6297 15.1111 15.6297Z" fill="#FF834E"/>
</svg>
