<svg width="230" height="33" viewBox="0 0 230 33" fill="none" xmlns="http://www.w3.org/2000/svg">
<path d="M83.3042 15.7372L85.1991 21.705L87.094 15.7372H88.3736L85.809 23.5454H84.5838L82.6889 17.6375L80.7941 23.5454H79.5635L76.9988 15.7372H78.2839L80.1788 21.705L82.0736 15.7372H83.3042ZM94.398 22.4292H98.8031V23.5454H93.1729V15.7372H98.6942V16.8534H94.398V18.9171H97.8012V20.0333H94.398V22.4292ZM107.169 23.5454H103.826V15.7372H107C107.632 15.7372 108.171 15.9459 108.617 16.3634C109.064 16.7808 109.287 17.26 109.287 17.8009C109.287 18.113 109.222 18.3998 109.091 18.6612C108.964 18.9225 108.837 19.104 108.71 19.2057L108.508 19.3636C108.537 19.3781 108.577 19.4035 108.628 19.4398C108.683 19.4725 108.779 19.5469 108.917 19.6631C109.055 19.7756 109.173 19.9008 109.271 20.0388C109.372 20.1767 109.465 20.3564 109.548 20.5778C109.636 20.7956 109.679 21.0225 109.679 21.2585C109.679 21.8828 109.44 22.4201 108.96 22.8702C108.481 23.3203 107.884 23.5454 107.169 23.5454ZM105.051 22.4836H107.169C107.532 22.4836 107.837 22.362 108.084 22.1188C108.331 21.872 108.454 21.567 108.454 21.204C108.454 20.841 108.331 20.5361 108.084 20.2893C107.84 20.0424 107.536 19.919 107.169 19.919H105.051V22.4836ZM107 16.799H105.051V18.9171H107C107.305 18.9171 107.557 18.8173 107.757 18.6176C107.96 18.4143 108.062 18.162 108.062 17.8608C108.062 17.5558 107.96 17.3035 107.757 17.1039C107.557 16.9006 107.305 16.799 107 16.799ZM119.49 23.5454L122.724 15.7372H123.95L127.184 23.5454H125.904L125.066 21.4817H121.608L120.77 23.5454H119.49ZM123.34 17.1311L122.055 20.3655H124.619L123.34 17.1311ZM136.889 23.5454H131.874V15.7372H133.099V22.4292H136.889V23.5454ZM140.12 15.7372H146.028V16.8534H143.687V23.5454H142.462V16.8534H140.12V15.7372ZM151.944 22.4292H156.349V23.5454H150.719V15.7372H156.24V16.8534H151.944V18.9171H155.347V20.0333H151.944V22.4292ZM161.371 23.5454V15.7372H164.66C165.383 15.7372 165.982 15.9677 166.457 16.4287C166.933 16.8897 167.17 17.4596 167.17 18.1384C167.17 18.4579 167.116 18.7574 167.007 19.0369C166.898 19.3128 166.767 19.5306 166.615 19.6903C166.463 19.85 166.31 19.9898 166.158 20.1096C166.005 20.2294 165.874 20.311 165.766 20.3546L165.608 20.4254L167.394 23.5454H166.054L164.383 20.5343H162.597V23.5454H161.371ZM165.57 19.0532C165.816 18.8064 165.94 18.5015 165.94 18.1384C165.94 17.7718 165.816 17.4669 165.57 17.2237C165.326 16.9768 165.023 16.8534 164.66 16.8534H162.597V19.418H164.66C165.023 19.418 165.326 19.2964 165.57 19.0532ZM177.932 15.7372H179.157V23.5454H178.101L173.75 17.9152V23.5454H172.525V15.7372H173.581L177.932 21.3728V15.7372ZM183.842 23.5454L187.076 15.7372H188.302L191.536 23.5454H190.256L189.418 21.4817H185.96L185.122 23.5454H183.842ZM187.692 17.1311L186.407 20.3655H188.971L187.692 17.1311ZM194.658 15.7372H200.566V16.8534H198.225V23.5454H197V16.8534H194.658V15.7372ZM205.257 23.5454V15.7372H206.482V23.5454H205.257ZM214.341 23.5454L211.27 15.7372H212.555L214.951 21.9827L217.352 15.7372H218.632L215.566 23.5454H214.341ZM224.651 22.4292H229.056V23.5454H223.426V15.7372H228.947V16.8534H224.651V18.9171H228.054V20.0333H224.651V22.4292Z" fill="white"/>
<path d="M83.3042 15.7372L83.3707 15.7161L83.3552 15.6675H83.3042V15.7372ZM85.1991 21.705L85.1327 21.7261L85.1991 21.9353L85.2655 21.7261L85.1991 21.705ZM87.094 15.7372V15.6675H87.043L87.0276 15.7161L87.094 15.7372ZM88.3736 15.7372L88.4398 15.7589L88.4699 15.6675H88.3736V15.7372ZM85.809 23.5454V23.6151H85.8594L85.8752 23.5672L85.809 23.5454ZM84.5838 23.5454L84.5175 23.5667L84.533 23.6151H84.5838V23.5454ZM82.6889 17.6375L82.7553 17.6162L82.6889 17.4093L82.6226 17.6162L82.6889 17.6375ZM80.7941 23.5454V23.6151H80.8449L80.8604 23.5667L80.7941 23.5454ZM79.5635 23.5454L79.4973 23.5672L79.513 23.6151H79.5635V23.5454ZM76.9988 15.7372V15.6675H76.9026L76.9326 15.7589L76.9988 15.7372ZM78.2839 15.7372L78.3503 15.7161L78.3349 15.6675H78.2839V15.7372ZM80.1788 21.705L80.1123 21.7261L80.1788 21.9353L80.2452 21.7261L80.1788 21.705ZM82.0736 15.7372V15.6675H82.0227L82.0072 15.7161L82.0736 15.7372ZM83.2378 15.7583L85.1327 21.7261L85.2655 21.6839L83.3707 15.7161L83.2378 15.7583ZM85.2655 21.7261L87.1604 15.7583L87.0276 15.7161L85.1327 21.6839L85.2655 21.7261ZM87.094 15.8069H88.3736V15.6675H87.094V15.8069ZM88.3074 15.7154L85.7428 23.5237L85.8752 23.5672L88.4398 15.7589L88.3074 15.7154ZM85.809 23.4757H84.5838V23.6151H85.809V23.4757ZM84.6502 23.5241L82.7553 17.6162L82.6226 17.6588L84.5175 23.5667L84.6502 23.5241ZM82.6226 17.6162L80.7277 23.5241L80.8604 23.5667L82.7553 17.6588L82.6226 17.6162ZM80.7941 23.4757H79.5635V23.6151H80.7941V23.4757ZM79.6297 23.5237L77.0651 15.7154L76.9326 15.7589L79.4973 23.5672L79.6297 23.5237ZM76.9988 15.8069H78.2839V15.6675H76.9988V15.8069ZM78.2174 15.7583L80.1123 21.7261L80.2452 21.6839L78.3503 15.7161L78.2174 15.7583ZM80.2452 21.7261L82.1401 15.7583L82.0072 15.7161L80.1123 21.6839L80.2452 21.7261ZM82.0736 15.8069H83.3042V15.6675H82.0736V15.8069ZM94.398 22.4292H94.3283V22.4989H94.398V22.4292ZM98.8031 22.4292H98.8728V22.3595H98.8031V22.4292ZM98.8031 23.5454V23.6151H98.8728V23.5454H98.8031ZM93.1729 23.5454H93.1032V23.6151H93.1729V23.5454ZM93.1729 15.7372V15.6675H93.1032V15.7372H93.1729ZM98.6942 15.7372H98.7639V15.6675H98.6942V15.7372ZM98.6942 16.8534V16.9231H98.7639V16.8534H98.6942ZM94.398 16.8534V16.7837H94.3283V16.8534H94.398ZM94.398 18.9171H94.3283V18.9868H94.398V18.9171ZM97.8012 18.9171H97.8709V18.8474H97.8012V18.9171ZM97.8012 20.0333V20.103H97.8709V20.0333H97.8012ZM94.398 20.0333V19.9636H94.3283V20.0333H94.398ZM94.398 22.4989H98.8031V22.3595H94.398V22.4989ZM98.7334 22.4292V23.5454H98.8728V22.4292H98.7334ZM98.8031 23.4757H93.1729V23.6151H98.8031V23.4757ZM93.2426 23.5454V15.7372H93.1032V23.5454H93.2426ZM93.1729 15.8069H98.6942V15.6675H93.1729V15.8069ZM98.6245 15.7372V16.8534H98.7639V15.7372H98.6245ZM98.6942 16.7837H94.398V16.9231H98.6942V16.7837ZM94.3283 16.8534V18.9171H94.4677V16.8534H94.3283ZM94.398 18.9868H97.8012V18.8474H94.398V18.9868ZM97.7315 18.9171V20.0333H97.8709V18.9171H97.7315ZM97.8012 19.9636H94.398V20.103H97.8012V19.9636ZM94.3283 20.0333V22.4292H94.4677V20.0333H94.3283ZM103.826 23.5454H103.756V23.6151H103.826V23.5454ZM103.826 15.7372V15.6675H103.756V15.7372H103.826ZM109.091 18.6612L109.029 18.63L109.028 18.6307L109.091 18.6612ZM108.71 19.2057L108.753 19.2605L108.753 19.2601L108.71 19.2057ZM108.508 19.3636L108.465 19.3087L108.379 19.3767L108.477 19.4259L108.508 19.3636ZM108.628 19.4398L108.588 19.4967L108.592 19.4996L108.628 19.4398ZM108.917 19.6631L108.872 19.7164L108.873 19.7171L108.917 19.6631ZM109.271 20.0388L109.214 20.0792L109.215 20.0801L109.271 20.0388ZM109.548 20.5778L109.483 20.6024L109.484 20.6037L109.548 20.5778ZM105.051 22.4836H104.981V22.5533H105.051V22.4836ZM108.084 22.1188L108.133 22.1684L108.133 22.1681L108.084 22.1188ZM108.084 20.2893L108.034 20.3382L108.034 20.3385L108.084 20.2893ZM105.051 19.919V19.8493H104.981V19.919H105.051ZM105.051 16.799V16.7293H104.981V16.799H105.051ZM105.051 18.9171H104.981V18.9868H105.051V18.9171ZM107.757 17.1039L107.707 17.1527L107.708 17.1536L107.757 17.1039ZM107.169 23.4757H103.826V23.6151H107.169V23.4757ZM103.895 23.5454V15.7372H103.756V23.5454H103.895ZM103.826 15.8069H107V15.6675H103.826V15.8069ZM107 15.8069C107.615 15.8069 108.137 16.0093 108.57 16.4143L108.665 16.3124C108.205 15.8825 107.649 15.6675 107 15.6675V15.8069ZM108.57 16.4143C109.004 16.8204 109.217 17.2819 109.217 17.8009H109.357C109.357 17.2381 109.123 16.7412 108.665 16.3124L108.57 16.4143ZM109.217 17.8009C109.217 18.103 109.154 18.379 109.029 18.63L109.153 18.6923C109.289 18.4206 109.357 18.1231 109.357 17.8009H109.217ZM109.028 18.6307C108.903 18.889 108.781 19.0593 108.666 19.1513L108.753 19.2601C108.893 19.1488 109.025 18.9561 109.154 18.6916L109.028 18.6307ZM108.667 19.1508L108.465 19.3087L108.551 19.4184L108.753 19.2605L108.667 19.1508ZM108.477 19.4259C108.501 19.438 108.538 19.4608 108.588 19.4965L108.669 19.3831C108.617 19.3462 108.574 19.3183 108.54 19.3013L108.477 19.4259ZM108.592 19.4996C108.641 19.529 108.733 19.5998 108.872 19.7164L108.962 19.6098C108.824 19.4941 108.724 19.416 108.664 19.3801L108.592 19.4996ZM108.873 19.7171C109.006 19.8259 109.12 19.9466 109.214 20.0792L109.328 19.9984C109.226 19.8551 109.103 19.7253 108.961 19.6091L108.873 19.7171ZM109.215 20.0801C109.311 20.2114 109.401 20.3849 109.483 20.6024L109.614 20.5533C109.529 20.3279 109.433 20.1421 109.327 19.9974L109.215 20.0801ZM109.484 20.6037C109.568 20.8132 109.609 21.0313 109.609 21.2585H109.749C109.749 21.0137 109.704 20.778 109.613 20.552L109.484 20.6037ZM109.609 21.2585C109.609 21.8625 109.379 22.3817 108.913 22.8194L109.008 22.921C109.5 22.4585 109.749 21.9032 109.749 21.2585H109.609ZM108.913 22.8194C108.448 23.2563 107.868 23.4757 107.169 23.4757V23.6151C107.9 23.6151 108.515 23.3844 109.008 22.921L108.913 22.8194ZM105.051 22.5533H107.169V22.4139H105.051V22.5533ZM107.169 22.5533C107.549 22.5533 107.872 22.4252 108.133 22.1684L108.035 22.0692C107.802 22.2989 107.515 22.4139 107.169 22.4139V22.5533ZM108.133 22.1681C108.393 21.9076 108.524 21.5847 108.524 21.204H108.384C108.384 21.5494 108.268 21.8363 108.034 22.0695L108.133 22.1681ZM108.524 21.204C108.524 20.8234 108.393 20.5005 108.133 20.24L108.034 20.3385C108.268 20.5717 108.384 20.8587 108.384 21.204H108.524ZM108.133 20.2403C107.876 19.9794 107.553 19.8493 107.169 19.8493V19.9887C107.518 19.9887 107.805 20.1055 108.034 20.3382L108.133 20.2403ZM107.169 19.8493H105.051V19.9887H107.169V19.8493ZM104.981 19.919V22.4836H105.12V19.919H104.981ZM107 16.7293H105.051V16.8687H107V16.7293ZM104.981 16.799V18.9171H105.12V16.799H104.981ZM105.051 18.9868H107V18.8474H105.051V18.9868ZM107 18.9868C107.322 18.9868 107.592 18.8807 107.806 18.6669L107.708 18.5683C107.522 18.7538 107.288 18.8474 107 18.8474V18.9868ZM107.806 18.6669C108.023 18.4499 108.132 18.1795 108.132 17.8608H107.992C107.992 18.1445 107.897 18.3788 107.708 18.5683L107.806 18.6669ZM108.132 17.8608C108.132 17.5386 108.023 17.2679 107.806 17.0542L107.708 17.1536C107.897 17.3392 107.992 17.5731 107.992 17.8608H108.132ZM107.807 17.055C107.593 16.8374 107.322 16.7293 107 16.7293V16.8687C107.288 16.8687 107.522 16.9638 107.707 17.1527L107.807 17.055ZM119.49 23.5454L119.426 23.5187L119.386 23.6151H119.49V23.5454ZM122.724 15.7372V15.6675H122.678L122.66 15.7105L122.724 15.7372ZM123.95 15.7372L124.014 15.7105L123.996 15.6675H123.95V15.7372ZM127.184 23.5454V23.6151H127.288L127.248 23.5187L127.184 23.5454ZM125.904 23.5454L125.84 23.5716L125.857 23.6151H125.904V23.5454ZM125.066 21.4817L125.13 21.4555L125.113 21.412H125.066V21.4817ZM121.608 21.4817V21.412H121.561L121.544 21.4555L121.608 21.4817ZM120.77 23.5454V23.6151H120.817L120.834 23.5716L120.77 23.5454ZM123.34 17.1311L123.405 17.1055L123.34 16.942L123.275 17.1054L123.34 17.1311ZM122.055 20.3655L121.99 20.3398L121.952 20.4352H122.055V20.3655ZM124.619 20.3655V20.4352H124.722L124.684 20.3398L124.619 20.3655ZM119.554 23.5721L122.789 15.7638L122.66 15.7105L119.426 23.5187L119.554 23.5721ZM122.724 15.8069H123.95V15.6675H122.724V15.8069ZM123.885 15.7638L127.12 23.5721L127.248 23.5187L124.014 15.7105L123.885 15.7638ZM127.184 23.4757H125.904V23.6151H127.184V23.4757ZM125.969 23.5192L125.13 21.4555L125.001 21.508L125.84 23.5716L125.969 23.5192ZM125.066 21.412H121.608V21.5514H125.066V21.412ZM121.544 21.4555L120.705 23.5192L120.834 23.5716L121.673 21.508L121.544 21.4555ZM120.77 23.4757H119.49V23.6151H120.77V23.4757ZM123.275 17.1054L121.99 20.3398L122.119 20.3912L123.404 17.1568L123.275 17.1054ZM122.055 20.4352H124.619V20.2958H122.055V20.4352ZM124.684 20.3398L123.405 17.1055L123.275 17.1568L124.554 20.3911L124.684 20.3398ZM136.889 23.5454V23.6151H136.959V23.5454H136.889ZM131.874 23.5454H131.805V23.6151H131.874V23.5454ZM131.874 15.7372V15.6675H131.805V15.7372H131.874ZM133.099 15.7372H133.169V15.6675H133.099V15.7372ZM133.099 22.4292H133.03V22.4989H133.099V22.4292ZM136.889 22.4292H136.959V22.3595H136.889V22.4292ZM136.889 23.4757H131.874V23.6151H136.889V23.4757ZM131.944 23.5454V15.7372H131.805V23.5454H131.944ZM131.874 15.8069H133.099V15.6675H131.874V15.8069ZM133.03 15.7372V22.4292H133.169V15.7372H133.03ZM133.099 22.4989H136.889V22.3595H133.099V22.4989ZM136.82 22.4292V23.5454H136.959V22.4292H136.82ZM140.12 15.7372V15.6675H140.051V15.7372H140.12ZM146.028 15.7372H146.098V15.6675H146.028V15.7372ZM146.028 16.8534V16.9231H146.098V16.8534H146.028ZM143.687 16.8534V16.7837H143.617V16.8534H143.687ZM143.687 23.5454V23.6151H143.757V23.5454H143.687ZM142.462 23.5454H142.392V23.6151H142.462V23.5454ZM142.462 16.8534H142.531V16.7837H142.462V16.8534ZM140.12 16.8534H140.051V16.9231H140.12V16.8534ZM140.12 15.8069H146.028V15.6675H140.12V15.8069ZM145.959 15.7372V16.8534H146.098V15.7372H145.959ZM146.028 16.7837H143.687V16.9231H146.028V16.7837ZM143.617 16.8534V23.5454H143.757V16.8534H143.617ZM143.687 23.4757H142.462V23.6151H143.687V23.4757ZM142.531 23.5454V16.8534H142.392V23.5454H142.531ZM142.462 16.7837H140.12V16.9231H142.462V16.7837ZM140.19 16.8534V15.7372H140.051V16.8534H140.19ZM151.944 22.4292H151.874V22.4989H151.944V22.4292ZM156.349 22.4292H156.419V22.3595H156.349V22.4292ZM156.349 23.5454V23.6151H156.419V23.5454H156.349ZM150.719 23.5454H150.649V23.6151H150.719V23.5454ZM150.719 15.7372V15.6675H150.649V15.7372H150.719ZM156.24 15.7372H156.31V15.6675H156.24V15.7372ZM156.24 16.8534V16.9231H156.31V16.8534H156.24ZM151.944 16.8534V16.7837H151.874V16.8534H151.944ZM151.944 18.9171H151.874V18.9868H151.944V18.9171ZM155.347 18.9171H155.417V18.8474H155.347V18.9171ZM155.347 20.0333V20.103H155.417V20.0333H155.347ZM151.944 20.0333V19.9636H151.874V20.0333H151.944ZM151.944 22.4989H156.349V22.3595H151.944V22.4989ZM156.279 22.4292V23.5454H156.419V22.4292H156.279ZM156.349 23.4757H150.719V23.6151H156.349V23.4757ZM150.788 23.5454V15.7372H150.649V23.5454H150.788ZM150.719 15.8069H156.24V15.6675H150.719V15.8069ZM156.17 15.7372V16.8534H156.31V15.7372H156.17ZM156.24 16.7837H151.944V16.9231H156.24V16.7837ZM151.874 16.8534V18.9171H152.013V16.8534H151.874ZM151.944 18.9868H155.347V18.8474H151.944V18.9868ZM155.277 18.9171V20.0333H155.417V18.9171H155.277ZM155.347 19.9636H151.944V20.103H155.347V19.9636ZM151.874 20.0333V22.4292H152.013V20.0333H151.874ZM161.371 23.5454H161.302V23.6151H161.371V23.5454ZM161.371 15.7372V15.6675H161.302V15.7372H161.371ZM167.007 19.0369L167.072 19.0625L167.072 19.0622L167.007 19.0369ZM165.766 20.3546L165.74 20.2898L165.737 20.291L165.766 20.3546ZM165.608 20.4254L165.579 20.3618L165.509 20.3932L165.547 20.46L165.608 20.4254ZM167.394 23.5454V23.6151H167.514L167.454 23.5108L167.394 23.5454ZM166.054 23.5454L165.993 23.5792L166.013 23.6151H166.054V23.5454ZM164.383 20.5343L164.443 20.5005L164.424 20.4646H164.383V20.5343ZM162.597 20.5343V20.4646H162.527V20.5343H162.597ZM162.597 23.5454V23.6151H162.666V23.5454H162.597ZM165.57 17.2237L165.52 17.2726L165.521 17.2733L165.57 17.2237ZM162.597 16.8534V16.7837H162.527V16.8534H162.597ZM162.597 19.418H162.527V19.4877H162.597V19.418ZM161.441 23.5454V15.7372H161.302V23.5454H161.441ZM161.371 15.8069H164.66V15.6675H161.371V15.8069ZM164.66 15.8069C165.366 15.8069 165.947 16.0315 166.409 16.4787L166.506 16.3787C166.016 15.9038 165.399 15.6675 164.66 15.6675V15.8069ZM166.409 16.4787C166.87 16.9263 167.101 17.478 167.101 18.1384H167.24C167.24 17.4413 166.995 16.8532 166.506 16.3787L166.409 16.4787ZM167.101 18.1384C167.101 18.4498 167.048 18.7406 166.942 19.0116L167.072 19.0622C167.184 18.7741 167.24 18.466 167.24 18.1384H167.101ZM166.942 19.0113C166.836 19.2815 166.709 19.4908 166.565 19.6422L166.665 19.7384C166.826 19.5704 166.961 19.344 167.072 19.0625L166.942 19.0113ZM166.565 19.6422C166.414 19.7998 166.264 19.9373 166.115 20.0548L166.201 20.1644C166.356 20.0423 166.511 19.9002 166.665 19.7384L166.565 19.6422ZM166.115 20.0548C165.964 20.1728 165.84 20.2499 165.74 20.2899L165.791 20.4193C165.909 20.3722 166.046 20.286 166.201 20.1644L166.115 20.0548ZM165.737 20.291L165.579 20.3618L165.636 20.489L165.794 20.4182L165.737 20.291ZM165.547 20.46L167.333 23.58L167.454 23.5108L165.668 20.3908L165.547 20.46ZM167.394 23.4757H166.054V23.6151H167.394V23.4757ZM166.115 23.5116L164.443 20.5005L164.322 20.5681L165.993 23.5792L166.115 23.5116ZM164.383 20.4646H162.597V20.604H164.383V20.4646ZM162.527 20.5343V23.5454H162.666V20.5343H162.527ZM162.597 23.4757H161.371V23.6151H162.597V23.4757ZM165.619 19.1025C165.879 18.842 166.009 18.5191 166.009 18.1384H165.87C165.87 18.4838 165.753 18.7707 165.52 19.0039L165.619 19.1025ZM166.009 18.1384C166.009 17.7544 165.879 17.4312 165.618 17.174L165.521 17.2733C165.753 17.5026 165.87 17.7893 165.87 18.1384H166.009ZM165.619 17.1748C165.362 16.9139 165.041 16.7837 164.66 16.7837V16.9231C165.006 16.9231 165.29 17.0397 165.52 17.2726L165.619 17.1748ZM164.66 16.7837H162.597V16.9231H164.66V16.7837ZM162.527 16.8534V19.418H162.666V16.8534H162.527ZM162.597 19.4877H164.66V19.3483H162.597V19.4877ZM164.66 19.4877C165.041 19.4877 165.362 19.3596 165.619 19.1025L165.52 19.0039C165.291 19.2333 165.006 19.3483 164.66 19.3483V19.4877ZM177.932 15.7372V15.6675H177.862V15.7372H177.932ZM179.157 15.7372H179.227V15.6675H179.157V15.7372ZM179.157 23.5454V23.6151H179.227V23.5454H179.157ZM178.101 23.5454L178.046 23.588L178.067 23.6151H178.101V23.5454ZM173.75 17.9152L173.805 17.8726L173.681 17.711V17.9152H173.75ZM173.75 23.5454V23.6151H173.82V23.5454H173.75ZM172.525 23.5454H172.455V23.6151H172.525V23.5454ZM172.525 15.7372V15.6675H172.455V15.7372H172.525ZM173.581 15.7372L173.637 15.6946L173.616 15.6675H173.581V15.7372ZM177.932 21.3728L177.877 21.4154L178.002 21.5772V21.3728H177.932ZM177.932 15.8069H179.157V15.6675H177.932V15.8069ZM179.087 15.7372V23.5454H179.227V15.7372H179.087ZM179.157 23.4757H178.101V23.6151H179.157V23.4757ZM178.156 23.5028L173.805 17.8726L173.695 17.9578L178.046 23.588L178.156 23.5028ZM173.681 17.9152V23.5454H173.82V17.9152H173.681ZM173.75 23.4757H172.525V23.6151H173.75V23.4757ZM172.595 23.5454V15.7372H172.455V23.5454H172.595ZM172.525 15.8069H173.581V15.6675H172.525V15.8069ZM173.526 15.7798L177.877 21.4154L177.987 21.3302L173.637 15.6946L173.526 15.7798ZM178.002 21.3728V15.7372H177.862V21.3728H178.002ZM183.842 23.5454L183.778 23.5187L183.738 23.6151H183.842V23.5454ZM187.076 15.7372V15.6675H187.03L187.012 15.7105L187.076 15.7372ZM188.302 15.7372L188.366 15.7105L188.348 15.6675H188.302V15.7372ZM191.536 23.5454V23.6151H191.64L191.6 23.5187L191.536 23.5454ZM190.256 23.5454L190.192 23.5716L190.21 23.6151H190.256V23.5454ZM189.418 21.4817L189.482 21.4555L189.465 21.412H189.418V21.4817ZM185.96 21.4817V21.412H185.913L185.896 21.4555L185.96 21.4817ZM185.122 23.5454V23.6151H185.169L185.186 23.5716L185.122 23.5454ZM187.692 17.1311L187.757 17.1055L187.692 16.942L187.627 17.1054L187.692 17.1311ZM186.407 20.3655L186.342 20.3398L186.304 20.4352H186.407V20.3655ZM188.971 20.3655V20.4352H189.074L189.036 20.3398L188.971 20.3655ZM183.907 23.5721L187.141 15.7638L187.012 15.7105L183.778 23.5187L183.907 23.5721ZM187.076 15.8069H188.302V15.6675H187.076V15.8069ZM188.237 15.7638L191.472 23.5721L191.6 23.5187L188.366 15.7105L188.237 15.7638ZM191.536 23.4757H190.256V23.6151H191.536V23.4757ZM190.321 23.5192L189.482 21.4555L189.353 21.508L190.192 23.5716L190.321 23.5192ZM189.418 21.412H185.96V21.5514H189.418V21.412ZM185.896 21.4555L185.057 23.5192L185.186 23.5716L186.025 21.508L185.896 21.4555ZM185.122 23.4757H183.842V23.6151H185.122V23.4757ZM187.627 17.1054L186.342 20.3398L186.472 20.3912L187.757 17.1568L187.627 17.1054ZM186.407 20.4352H188.971V20.2958H186.407V20.4352ZM189.036 20.3398L187.757 17.1055L187.627 17.1568L188.907 20.3911L189.036 20.3398ZM194.658 15.7372V15.6675H194.589V15.7372H194.658ZM200.566 15.7372H200.636V15.6675H200.566V15.7372ZM200.566 16.8534V16.9231H200.636V16.8534H200.566ZM198.225 16.8534V16.7837H198.155V16.8534H198.225ZM198.225 23.5454V23.6151H198.294V23.5454H198.225ZM197 23.5454H196.93V23.6151H197V23.5454ZM197 16.8534H197.069V16.7837H197V16.8534ZM194.658 16.8534H194.589V16.9231H194.658V16.8534ZM194.658 15.8069H200.566V15.6675H194.658V15.8069ZM200.496 15.7372V16.8534H200.636V15.7372H200.496ZM200.566 16.7837H198.225V16.9231H200.566V16.7837ZM198.155 16.8534V23.5454H198.294V16.8534H198.155ZM198.225 23.4757H197V23.6151H198.225V23.4757ZM197.069 23.5454V16.8534H196.93V23.5454H197.069ZM197 16.7837H194.658V16.9231H197V16.7837ZM194.728 16.8534V15.7372H194.589V16.8534H194.728ZM205.257 23.5454H205.187V23.6151H205.257V23.5454ZM205.257 15.7372V15.6675H205.187V15.7372H205.257ZM206.482 15.7372H206.551V15.6675H206.482V15.7372ZM206.482 23.5454V23.6151H206.551V23.5454H206.482ZM205.326 23.5454V15.7372H205.187V23.5454H205.326ZM205.257 15.8069H206.482V15.6675H205.257V15.8069ZM206.412 15.7372V23.5454H206.551V15.7372H206.412ZM206.482 23.4757H205.257V23.6151H206.482V23.4757ZM214.341 23.5454L214.276 23.5709L214.294 23.6151H214.341V23.5454ZM211.27 15.7372V15.6675H211.168L211.205 15.7627L211.27 15.7372ZM212.555 15.7372L212.62 15.7122L212.603 15.6675H212.555V15.7372ZM214.951 21.9827L214.886 22.0076L214.951 22.1771L215.016 22.0077L214.951 21.9827ZM217.352 15.7372V15.6675H217.304L217.287 15.7122L217.352 15.7372ZM218.632 15.7372L218.697 15.7626L218.734 15.6675H218.632V15.7372ZM215.566 23.5454V23.6151H215.614L215.631 23.5709L215.566 23.5454ZM214.406 23.5199L211.335 15.7117L211.205 15.7627L214.276 23.5709L214.406 23.5199ZM211.27 15.8069H212.555V15.6675H211.27V15.8069ZM212.49 15.7621L214.886 22.0076L215.016 21.9577L212.62 15.7122L212.49 15.7621ZM215.016 22.0077L217.417 15.7622L217.287 15.7122L214.886 21.9577L215.016 22.0077ZM217.352 15.8069H218.632V15.6675H217.352V15.8069ZM218.567 15.7117L215.501 23.5199L215.631 23.5709L218.697 15.7626L218.567 15.7117ZM215.566 23.4757H214.341V23.6151H215.566V23.4757ZM224.651 22.4292H224.581V22.4989H224.651V22.4292ZM229.056 22.4292H229.126V22.3595H229.056V22.4292ZM229.056 23.5454V23.6151H229.126V23.5454H229.056ZM223.426 23.5454H223.356V23.6151H223.426V23.5454ZM223.426 15.7372V15.6675H223.356V15.7372H223.426ZM228.947 15.7372H229.017V15.6675H228.947V15.7372ZM228.947 16.8534V16.9231H229.017V16.8534H228.947ZM224.651 16.8534V16.7837H224.581V16.8534H224.651ZM224.651 18.9171H224.581V18.9868H224.651V18.9171ZM228.054 18.9171H228.124V18.8474H228.054V18.9171ZM228.054 20.0333V20.103H228.124V20.0333H228.054ZM224.651 20.0333V19.9636H224.581V20.0333H224.651ZM224.651 22.4989H229.056V22.3595H224.651V22.4989ZM228.986 22.4292V23.5454H229.126V22.4292H228.986ZM229.056 23.4757H223.426V23.6151H229.056V23.4757ZM223.495 23.5454V15.7372H223.356V23.5454H223.495ZM223.426 15.8069H228.947V15.6675H223.426V15.8069ZM228.877 15.7372V16.8534H229.017V15.7372H228.877ZM228.947 16.7837H224.651V16.9231H228.947V16.7837ZM224.581 16.8534V18.9171H224.72V16.8534H224.581ZM224.651 18.9868H228.054V18.8474H224.651V18.9868ZM227.984 18.9171V20.0333H228.124V18.9171H227.984ZM228.054 19.9636H224.651V20.103H228.054V19.9636ZM224.581 20.0333V22.4292H224.72V20.0333H224.581Z" fill="white"/>
<path fill-rule="evenodd" clip-rule="evenodd" d="M20.387 32.807H27.3634L31.3065 28.7982L35.2495 32.807H42.1987L31.2928 21.7194L20.387 32.807ZM0 8.91576L11.7519 31.9839L18.8655 25.1021L10.3613 11.6293L0 8.91576ZM62.7273 8.91219L50.9755 31.9804L43.8619 25.0985L52.3663 11.6257L62.7273 8.91219ZM31.297 0L19.5722 16.0817L22.7013 21.3544L31.297 12.8804L39.8925 21.3544L43.0216 16.0817L31.297 0Z" fill="white"/>
</svg>
