<svg width="157" height="44" viewBox="0 0 157 44" fill="none" xmlns="http://www.w3.org/2000/svg">
<g clip-path="url(#clip0)">
<path fill-rule="evenodd" clip-rule="evenodd" d="M57.17 11.7648C57.17 6.98762 59.9776 3.88667 65.0062 3.88667C66.5727 3.82521 68.1323 4.12637 69.5633 4.76667L68.8929 6.51619C67.6607 6.06939 66.3587 5.84589 65.0481 5.85619C61.9786 5.83524 59.5586 7.50095 59.5586 11.5552C59.5586 15.6933 62.0624 17.4848 65.4671 17.4848C66.6789 17.4992 67.8851 17.3188 69.0395 16.9505L69.5843 18.7524C68.1501 19.296 66.6231 19.5523 65.09 19.5067C59.8729 19.5067 57.17 16.4162 57.17 11.7648ZM70.9462 12.8124C70.9462 10.4133 71.4071 6.64191 72.769 5.37429C73.9633 4.26381 77.1481 3.50952 80.8567 2.82857L81.2233 4.84C77.9233 5.39524 75.0005 5.90857 74.2881 6.6C73.6589 7.47767 73.2953 8.51769 73.2405 9.59619C74.4777 8.9191 75.8635 8.55916 77.2738 8.54857C80.1129 8.54857 81.9148 9.94191 81.9148 13.4933C81.9148 17.6733 79.4633 19.5381 76.1948 19.5381C72.9471 19.5381 70.9462 17.5267 70.9462 12.8124ZM79.6414 13.5771C79.6414 11.7229 78.8348 10.2876 76.6871 10.2876C75.4528 10.3319 74.248 10.6772 73.1776 11.2933C73.1567 11.6705 73.1357 12.2362 73.1357 12.6133C73.1357 16.1124 74.1938 17.7362 76.3624 17.7362C78.929 17.7362 79.6414 15.599 79.6414 13.5771ZM83.7795 13.7133C83.7795 9.08286 86.1576 7.34381 89.1329 7.34381C92.4433 7.34381 93.8367 9.42857 93.8367 13.2419V14.0276H86.0529C86.0738 17.1181 87.8548 17.7362 89.929 17.7362C91.0349 17.7316 92.1335 17.5585 93.1871 17.2229L93.5748 18.9619C92.2908 19.4022 90.9406 19.6183 89.5833 19.601C86.0529 19.601 83.7795 18.2286 83.7795 13.7133ZM91.49 12.4667C91.49 10.3924 90.7357 9.04095 88.9967 9.04095C87.4357 9.04095 86.2729 10.1724 86.1157 12.4667H91.49ZM96.2148 7.71048H98.5719V8.56952C99.4581 7.79777 100.592 7.3702 101.767 7.36476C104.564 7.36476 106.471 9.30286 106.471 13.2C106.471 17.9771 103.611 19.4752 100.426 19.4752C99.8074 19.4895 99.1883 19.4685 98.5719 19.4124V23.7286H96.2148V7.71048ZM104.177 13.3048C104.177 11.1781 103.422 9.27143 101.139 9.27143C100.217 9.31752 99.3277 9.62253 98.5719 10.1514V17.5686C99.1688 17.6912 99.7752 17.7613 100.384 17.7781C103.098 17.7781 104.177 15.9133 104.177 13.3048ZM108.43 12.8124C108.43 10.4133 108.891 6.64191 110.253 5.37429C111.447 4.26381 114.632 3.50952 118.34 2.82857L118.707 4.84C115.407 5.39524 112.484 5.90857 111.772 6.6C111.143 7.47767 110.779 8.51769 110.724 9.59619C111.962 8.9191 113.347 8.55916 114.758 8.54857C117.597 8.54857 119.399 9.94191 119.399 13.4933C119.399 17.6733 116.947 19.5381 113.679 19.5381C110.41 19.5381 108.43 17.5267 108.43 12.8124ZM117.125 13.5771C117.125 11.7229 116.319 10.2876 114.171 10.2876C112.937 10.3319 111.732 10.6772 110.661 11.2933C110.64 11.6705 110.62 12.2362 110.62 12.6133C110.62 16.1124 111.678 17.7362 113.846 17.7362C116.413 17.7362 117.125 15.599 117.125 13.5771ZM120.855 16.1962C120.855 13.2419 123.505 12.6343 125.559 12.6133L128.136 12.5714V11.3143C128.136 9.70095 127.319 9.27143 125.58 9.27143C124.452 9.27037 123.332 9.46169 122.269 9.83714L121.787 8.14C123.107 7.60055 124.521 7.32987 125.946 7.34381C128.785 7.34381 130.346 8.32857 130.346 10.7067V16.8143C130.37 17.1071 130.52 17.3749 130.758 17.5479C130.995 17.721 131.296 17.782 131.582 17.7152L131.404 19.4333C131.255 19.4582 131.105 19.4722 130.954 19.4752C129.739 19.4752 128.555 19.1086 128.335 18.061C127.267 18.9844 125.911 19.5068 124.5 19.5381C122.311 19.5381 120.855 18.3543 120.855 16.1962ZM128.136 16.7095V14.0067L125.621 14.1219C123.998 14.1638 123.065 14.8448 123.065 16.0495C123.065 17.2229 123.935 17.6314 125.087 17.6314C126.168 17.6051 127.221 17.2865 128.136 16.7095ZM133.52 7.71048H135.794V12.5924H141.367V7.71048H143.64V19.4438H141.367V14.3733H135.794V19.4438H133.52V7.71048ZM146.438 7.71048H148.711V19.4438H146.438V7.71048ZM152.158 17.3276L148.795 13.3467L153.509 7.71048H156.065L151.246 13.179L153.593 15.7457C154.346 16.7243 155.369 17.4602 156.537 17.8619L156.149 19.5695C154.542 19.4862 153.065 18.6569 152.158 17.3276ZM46.9033 21.0571C46.7327 33.7598 36.3867 43.9678 23.6829 43.9678C10.979 43.9678 0.633035 33.7598 0.462387 21.0571C0.462387 20.5438 0.483339 20.0305 0.514768 19.5276L14.5738 27.521L44.3471 10.5914C46.0317 13.8224 46.9088 17.4134 46.9033 21.0571ZM14.5738 21.6962L1.48905 14.2581C1.22551 15.0853 1.01555 15.9286 0.860482 16.7829L14.5738 24.5771L43.0691 8.38095C42.6016 7.67859 42.0945 7.00352 41.55 6.35905L14.5738 21.6962ZM39.79 4.47333C39.1407 3.8607 38.4588 3.28366 37.7471 2.74476L14.5738 15.9238L3.51096 9.62762C3.09228 10.3532 2.71455 11.1017 2.37953 11.8695L14.5738 18.8048L39.79 4.47333ZM14.5738 13.179L35.4005 1.34095C34.5271 0.833602 33.6207 0.385606 32.6871 0L14.5738 10.2876L6.50715 5.70952C5.93218 6.33385 5.39017 6.98776 4.88334 7.66857L14.5738 13.179Z" fill="#299D37"/>
<path fill-rule="evenodd" clip-rule="evenodd" d="M57.2438 32.9057C57.2438 28.1286 60.1876 25.1219 65.059 25.1219C70.1819 25.1219 72.56 28.4743 72.56 32.9476C72.56 37.6514 69.7943 40.7838 64.7029 40.7838C59.7476 40.7838 57.2438 37.6095 57.2438 32.9057ZM70.1924 32.9267C70.1924 29.5533 68.5057 26.9971 64.9229 26.9971C61.1829 26.9971 59.5905 29.5533 59.5905 32.8847C59.5905 36.1219 61.12 38.8981 64.7762 38.8981C68.6629 38.8981 70.1924 36.3 70.1924 32.9267ZM74.9171 29.0295H77.0962V33.9952H82.481V29.0295H84.7648V40.7628H82.481V35.7762H77.0962V40.7628H74.9171V29.0295ZM86.5038 39.2333C87.4476 38.9553 88.2588 38.345 88.7876 37.5152C89.4371 36.3105 89.8562 33.0733 89.9819 29.0295H97.5771V40.7628H95.419V30.7895H91.9829C91.6581 34.8752 91.2495 37.3686 90.4638 38.8038C89.7319 39.9921 88.5482 40.8316 87.1848 41.1295L86.5038 39.2333ZM99.7457 37.599C99.7457 34.6343 102.407 34.0371 104.47 34.0162L107.058 33.9743V32.7066C107.058 31.0933 106.23 30.6638 104.491 30.6638C103.358 30.6647 102.232 30.8523 101.16 31.219L100.689 29.5219C102.011 28.9803 103.429 28.7096 104.858 28.7257C107.708 28.7257 109.269 29.7209 109.269 32.099V38.2276C109.293 38.5204 109.443 38.7882 109.68 38.9613C109.918 39.1343 110.219 39.1954 110.505 39.1286L110.327 40.8467C110.178 40.8715 110.027 40.8855 109.876 40.8886C108.661 40.8886 107.467 40.5219 107.247 39.4743C106.175 40.3976 104.816 40.9197 103.402 40.9514C101.202 40.9514 99.7457 39.7781 99.7457 37.599ZM107.058 38.1228V35.4095L104.533 35.5143C102.899 35.5667 101.967 36.2476 101.967 37.4524C101.963 37.9643 102.187 38.4514 102.577 38.7829C102.967 39.1144 103.484 39.2563 103.989 39.1705C105.087 39.1004 106.146 38.7387 107.058 38.1228ZM112.673 29.0295H114.821V36.2057L114.758 37.7771L115.785 36.1847L120.845 29.0295H123.129V40.7628H120.845V33.6286L120.908 32.0152L119.891 33.6495L114.821 40.7628H112.673V29.0295ZM114.308 24.9333L115.282 23.8647C115.895 24.665 116.841 25.14 117.849 25.1533C118.862 25.1408 119.815 24.6663 120.436 23.8647L121.39 24.9333C120.633 26.1638 119.293 26.9136 117.849 26.9136C116.404 26.9136 115.064 26.1638 114.308 24.9333ZM126.135 29.0295H128.419V33.9952H134.003V29.0295H136.287V40.7628H134.003V35.7762H128.419V40.7628H126.135V29.0295Z" fill="#F59726"/>
</g>
<defs>
<clipPath id="clip0">
<rect width="156.095" height="44" fill="white" transform="translate(0.452393)"/>
</clipPath>
</defs>
</svg>
